# xmcd
#
# Track frame offsets:
#	150
#	16389
#	35808
#	67062
#	98069
#	112264
#	134337
#	164767
#	181524
#
# Disc length: 2963 seconds
#
# Revision: 1
# Processed by: cddbd v1.5.2PL0 Copyright (c) Steve Scherf et al.
# Submitted via: audiograbber 1.83.01
#
DISCID=7f0b9109
DTITLE=Clayton Doley's Organ Donors - Tension!
DYEAR=2010
DGENRE=Soul
TTITLE0=Booker Table
TTITLE1=Barney Goes Uptown
TTITLE2=Return Of The Prodigal Son
TTITLE3=Tension
TTITLE4=The White Knight
TTITLE5=Partners
TTITLE6=Up The McDuff
TTITLE7=Baby John Burgess
TTITLE8=Mosquito
EXTD=
EXTT0=
EXTT1=
EXTT2=
EXTT3=
EXTT4=
EXTT5=
EXTT6=
EXTT7=
EXTT8=
PLAYORDER=
